<svg xmlns="http://www.w3.org/2000/svg" width="1200" height="360" viewBox="0 0 1200 360"><rect width="1200" height="360" fill="#101923"/><g font-family="Malgun Gothic, sans-serif" fill="#ede5d4"><text x="40" y="43" font-size="25">달빛 잔치 · 실제 연주에서 선택한 노드</text><text x="40" y="72" font-size="15" fill="#b1b9bd">120 BPM / 글자별 색상 / 큰 점은 글자 완성 / 12–30초 구간</text><line x1="129.0" y1="100" x2="129.0" y2="250" stroke="#293746"/><line x1="158.0" y1="100" x2="158.0" y2="250" stroke="#293746"/><text x="151.0" y="280" font-size="13" fill="#9eaab4">13</text><line x1="187.0" y1="100" x2="187.0" y2="250" stroke="#293746"/><line x1="216.0" y1="100" x2="216.0" y2="250" stroke="#293746"/><text x="209.0" y="280" font-size="13" fill="#9eaab4">14</text><line x1="245.0" y1="100" x2="245.0" y2="250" stroke="#293746"/><line x1="274.0" y1="100" x2="274.0" y2="250" stroke="#293746"/><text x="267.0" y="280" font-size="13" fill="#9eaab4">15</text><line x1="303.0" y1="100" x2="303.0" y2="250" stroke="#293746"/><line x1="332.0" y1="100" x2="332.0" y2="250" stroke="#293746"/><text x="325.0" y="280" font-size="13" fill="#9eaab4">16</text><line x1="361.0" y1="100" x2="361.0" y2="250" stroke="#293746"/><line x1="390.0" y1="100" x2="390.0" y2="250" stroke="#293746"/><text x="383.0" y="280" font-size="13" fill="#9eaab4">17</text><line x1="419.0" y1="100" x2="419.0" y2="250" stroke="#293746"/><line x1="448.0" y1="100" x2="448.0" y2="250" stroke="#293746"/><text x="441.0" y="280" font-size="13" fill="#9eaab4">18</text><line x1="477.0" y1="100" x2="477.0" y2="250" stroke="#293746"/><line x1="506.0" y1="100" x2="506.0" y2="250" stroke="#293746"/><text x="499.0" y="280" font-size="13" fill="#9eaab4">19</text><line x1="535.0" y1="100" x2="535.0" y2="250" stroke="#293746"/><line x1="564.0" y1="100" x2="564.0" y2="250" stroke="#293746"/><text x="557.0" y="280" font-size="13" fill="#9eaab4">20</text><line x1="593.0" y1="100" x2="593.0" y2="250" stroke="#293746"/><line x1="622.0" y1="100" x2="622.0" y2="250" stroke="#293746"/><text x="615.0" y="280" font-size="13" fill="#9eaab4">21</text><line x1="651.0" y1="100" x2="651.0" y2="250" stroke="#293746"/><line x1="680.0" y1="100" x2="680.0" y2="250" stroke="#293746"/><text x="673.0" y="280" font-size="13" fill="#9eaab4">22</text><line x1="709.0" y1="100" x2="709.0" y2="250" stroke="#293746"/><line x1="738.0" y1="100" x2="738.0" y2="250" stroke="#293746"/><text x="731.0" y="280" font-size="13" fill="#9eaab4">23</text><line x1="767.0" y1="100" x2="767.0" y2="250" stroke="#293746"/><line x1="796.0" y1="100" x2="796.0" y2="250" stroke="#293746"/><text x="789.0" y="280" font-size="13" fill="#9eaab4">24</text><line x1="825.0" y1="100" x2="825.0" y2="250" stroke="#293746"/><line x1="854.0" y1="100" x2="854.0" y2="250" stroke="#293746"/><text x="847.0" y="280" font-size="13" fill="#9eaab4">25</text><line x1="883.0" y1="100" x2="883.0" y2="250" stroke="#293746"/><line x1="912.0" y1="100" x2="912.0" y2="250" stroke="#293746"/><text x="905.0" y="280" font-size="13" fill="#9eaab4">26</text><line x1="941.0" y1="100" x2="941.0" y2="250" stroke="#293746"/><line x1="970.0" y1="100" x2="970.0" y2="250" stroke="#293746"/><text x="963.0" y="280" font-size="13" fill="#9eaab4">27</text><line x1="999.0" y1="100" x2="999.0" y2="250" stroke="#293746"/><line x1="1028.0" y1="100" x2="1028.0" y2="250" stroke="#293746"/><text x="1021.0" y="280" font-size="13" fill="#9eaab4">28</text><line x1="1057.0" y1="100" x2="1057.0" y2="250" stroke="#293746"/><line x1="1086.0" y1="100" x2="1086.0" y2="250" stroke="#293746"/><text x="1079.0" y="280" font-size="13" fill="#9eaab4">29</text><line x1="1115.0" y1="100" x2="1115.0" y2="250" stroke="#293746"/><line x1="1144.0" y1="100" x2="1144.0" y2="250" stroke="#293746"/><text x="1137.0" y="280" font-size="13" fill="#9eaab4">30</text><circle cx="179.75" cy="180" r="7" fill="#8ac5cf"/><text x="171.75" y="158" font-size="18" fill="#8ac5cf">ㅂ</text><circle cx="216.0" cy="180" r="11" fill="#8ac5cf"/><text x="208.0" y="158" font-size="18" fill="#8ac5cf">ㅏ</text><text x="206.0" y="222" font-size="22">바</text><circle cx="295.75" cy="180" r="7" fill="#e5bf70"/><text x="287.75" y="158" font-size="18" fill="#e5bf70">ㄷ</text><circle cx="332.0" cy="180" r="11" fill="#e5bf70"/><text x="324.0" y="158" font-size="18" fill="#e5bf70">ㅏ</text><text x="322.0" y="222" font-size="22">다</text><circle cx="411.75" cy="180" r="7" fill="#acba92"/><text x="403.75" y="158" font-size="18" fill="#acba92">ㄹ</text><circle cx="448.0" cy="180" r="11" fill="#acba92"/><text x="440.0" y="158" font-size="18" fill="#acba92">ㅗ</text><text x="438.0" y="222" font-size="22">로</text><circle cx="506.0" cy="180" r="7" fill="#bc9ccc"/><text x="498.0" y="158" font-size="18" fill="#bc9ccc">ㄱ</text><circle cx="564.0" cy="180" r="11" fill="#bc9ccc"/><text x="556.0" y="158" font-size="18" fill="#bc9ccc">ㅏ</text><text x="554.0" y="222" font-size="22">가</text><circle cx="622.0" cy="180" r="7" fill="#d1a197"/><text x="614.0" y="158" font-size="18" fill="#d1a197">ㅈ</text><circle cx="680.0" cy="180" r="11" fill="#d1a197"/><text x="672.0" y="158" font-size="18" fill="#d1a197">ㅏ</text><text x="670.0" y="222" font-size="22">자</text><circle cx="839.5" cy="180" r="7" fill="#8ac5cf"/><text x="831.5" y="158" font-size="18" fill="#8ac5cf">ㅇ</text><circle cx="875.75" cy="180" r="7" fill="#8ac5cf"/><text x="867.75" y="158" font-size="18" fill="#8ac5cf">ㅛ</text><circle cx="912.0" cy="180" r="11" fill="#8ac5cf"/><text x="904.0" y="158" font-size="18" fill="#8ac5cf">ㅇ</text><text x="902.0" y="222" font-size="22">용</text><circle cx="955.5" cy="180" r="7" fill="#e5bf70"/><text x="947.5" y="158" font-size="18" fill="#e5bf70">ㄱ</text><circle cx="991.75" cy="180" r="7" fill="#e5bf70"/><text x="983.75" y="158" font-size="18" fill="#e5bf70">ㅜ</text><circle cx="1028.0" cy="180" r="11" fill="#e5bf70"/><text x="1020.0" y="158" font-size="18" fill="#e5bf70">ㅇ</text><text x="1018.0" y="222" font-size="22">궁</text><circle cx="1107.75" cy="180" r="7" fill="#acba92"/><text x="1099.75" y="158" font-size="18" fill="#acba92">ㅇ</text><circle cx="1144.0" cy="180" r="11" fill="#acba92"/><text x="1136.0" y="158" font-size="18" fill="#acba92">ㅔ</text><text x="1134.0" y="222" font-size="22">에</text><text x="40" y="329" font-size="16" fill="#b1b9bd">67키 · 10종의 입력 간격 · 오프비트 25키 · 모든 노드가 실제 악기 시작 시점과 일치</text></g></svg>